<svg width="112" height="30" viewBox="0 0 112 30" fill="none" xmlns="http://www.w3.org/2000/svg">
<path d="M8.37442 0.389623C9.49103 0.389623 10.4388 0.538881 11.2178 0.837515C11.9968 1.13615 12.6395 1.5581 13.1459 2.10341C13.6522 2.64872 14.0223 3.31088 14.256 4.08989C14.4897 4.8689 14.6065 5.73877 14.6065 6.69958V23.1757C14.6065 25.0972 14.1196 26.6358 13.1459 27.7913C12.1721 28.9469 10.5816 29.5246 8.37442 29.5246H3.89454e-05V28.473C3.89454e-05 27.9017 0.0779401 27.4667 0.233743 27.1681C0.389545 26.8696 0.597268 26.6553 0.856952 26.5254C1.16856 26.3436 1.32436 26.071 1.32436 25.7075V4.20674C1.32436 3.97304 1.27244 3.78479 1.16856 3.64196C1.06468 3.49913 0.947824 3.40175 0.818001 3.34983C0.558318 3.22001 0.35706 3.01228 0.214228 2.72666C0.0713965 2.44103 0 2.03856 0 1.51919V0.389623H8.37438H8.37442ZM10.7504 6.62172C10.7504 5.71288 10.5622 4.98579 10.1856 4.44048C9.80908 3.89518 9.20533 3.62252 8.37442 3.62252H5.68683C5.50504 3.62252 5.36872 3.68095 5.27784 3.7978C5.18697 3.91465 5.14152 4.03801 5.14152 4.16783V25.7854C5.14152 25.9152 5.18047 26.0386 5.25837 26.1554C5.33627 26.2723 5.44015 26.3307 5.56997 26.3307H8.37442C9.20535 26.3307 9.80906 26.0581 10.1856 25.5128C10.5622 24.9674 10.7504 24.2403 10.7504 23.3315V6.62172ZM33.2765 0.389623L33.2764 1.55814C33.2764 1.99957 33.192 2.36309 33.0232 2.64876C32.8545 2.93442 32.6662 3.15511 32.4585 3.31092C32.3546 3.38882 32.2702 3.47322 32.2053 3.5641C32.1404 3.65497 32.0949 3.80427 32.0689 4.01199V4.08989V23.9157C32.0689 24.9025 31.8936 25.7659 31.5431 26.506C31.1925 27.246 30.7122 27.8563 30.1019 28.3366C29.4917 28.817 28.7776 29.1741 27.9596 29.4078C27.1417 29.6415 26.2523 29.7583 25.2915 29.7583C24.3307 29.7583 23.4348 29.6415 22.6039 29.4078C21.773 29.1741 21.0459 28.817 20.4227 28.3366C19.7995 27.8563 19.3126 27.246 18.962 26.506C18.6115 25.7659 18.4362 24.9025 18.4362 23.9157V4.16779V4.12884C18.4362 3.86916 18.4038 3.68737 18.3388 3.58349C18.2739 3.47961 18.1765 3.38874 18.0467 3.31084C17.839 3.15504 17.6313 2.9343 17.4235 2.64868C17.2158 2.36305 17.1119 1.99953 17.1119 1.55806V0.389545H23.7335V1.55806C23.7335 1.99949 23.6102 2.36302 23.3635 2.64868C23.1168 2.93434 22.8896 3.15504 22.6819 3.31084C22.5521 3.38874 22.4547 3.47961 22.3898 3.58349C22.3248 3.68737 22.2924 3.86916 22.2924 4.12884V23.6041C22.2924 24.6169 22.6105 25.3634 23.2467 25.8438C23.8829 26.3242 24.5645 26.5644 25.2916 26.5644C25.9927 26.5644 26.6549 26.3242 27.2781 25.8438C27.9013 25.3634 28.2129 24.6169 28.2129 23.6041V4.16779V4.12884V4.01199C28.2129 3.80427 28.1739 3.65497 28.096 3.5641C28.0181 3.47322 27.9273 3.38882 27.8234 3.31092C27.6157 3.15511 27.4079 2.93438 27.2002 2.64876C26.9925 2.36313 26.8886 1.99961 26.8886 1.55814V0.389623H33.2765H33.2765ZM43.0268 29.7973C42.066 29.7973 41.1769 29.6804 40.3589 29.4466C39.5409 29.2129 38.8398 28.8494 38.2556 28.356C37.6713 27.8626 37.2104 27.2459 36.8728 26.5059C36.5352 25.7658 36.3665 24.9024 36.3665 23.9157V5.84259C36.3665 4.85587 36.5417 3.99244 36.8923 3.25237C37.2428 2.51231 37.7168 1.90205 38.314 1.4217C38.9112 0.941339 39.6253 0.584259 40.4563 0.350555C41.2873 0.116851 42.183 0 43.1439 0C44.1047 0 44.994 0.116851 45.812 0.350555C46.6299 0.584259 47.344 0.941319 47.9543 1.4217C48.5645 1.90207 49.0449 2.51231 49.3954 3.25237C49.746 3.99244 49.9213 4.85587 49.9213 5.84259V8.76388H48.2464C47.5972 8.76388 47.0713 8.56262 46.6689 8.16015C46.2664 7.75767 46.0652 7.24481 46.0652 6.6216V6.07629C46.0652 5.03758 45.7601 4.29752 45.1498 3.85611C44.5396 3.4147 43.8709 3.19395 43.1439 3.19395C42.4168 3.19395 41.7481 3.41468 41.1379 3.85611C40.5277 4.29754 40.2226 5.03758 40.2226 6.07629V23.8767C40.2226 24.6817 40.5082 25.3309 41.0795 25.8242C41.6508 26.3176 42.3 26.5643 43.027 26.5643C43.3905 26.5643 43.7541 26.4994 44.1176 26.3696C44.4812 26.2397 44.8057 26.0515 45.0913 25.8048C45.377 25.5581 45.6107 25.2725 45.7925 24.9479C45.9742 24.6234 46.0651 24.2663 46.0651 23.8768V23.2146C46.0651 22.6174 46.2404 22.1045 46.5909 21.6761C46.9415 21.2476 47.4673 21.0334 48.1684 21.0334H49.9212V24.3053C49.9212 25.292 49.7394 26.1359 49.3759 26.837C49.0124 27.5381 48.519 28.1095 47.8958 28.5509C47.2726 28.9923 46.5455 29.3104 45.7146 29.5052C44.8836 29.6999 43.9878 29.7973 43.027 29.7973L43.0268 29.7973ZM67.1109 0.311721C67.7342 0.311721 68.1626 0.44801 68.3963 0.720664C68.63 0.993318 68.7469 1.45422 68.7469 2.10341V3.31088V5.45316H66.6435C66.28 5.45316 65.9944 5.3298 65.7867 5.08313C65.5789 4.83646 65.4751 4.50538 65.4751 4.08989C65.4751 3.75231 65.3322 3.58353 65.0466 3.58353H63.138C62.9822 3.58353 62.8459 3.63545 62.729 3.73934C62.6122 3.84322 62.5538 4.01199 62.5538 4.24569V25.7854C62.5538 26.0451 62.5927 26.2268 62.6706 26.3307C62.7485 26.4346 62.8524 26.5385 62.9822 26.6424C63.1899 26.7982 63.3912 27.0189 63.5859 27.3045C63.7807 27.5901 63.8781 27.9537 63.8781 28.3951V29.5247H57.4123V28.3951C57.4123 27.9537 57.5162 27.5902 57.7239 27.3045C57.9316 27.0189 58.1393 26.7982 58.3471 26.6424C58.4509 26.5385 58.5418 26.4346 58.6197 26.3307C58.6976 26.2268 58.7366 26.0451 58.7366 25.7854V4.12884C58.7366 3.94706 58.6716 3.81073 58.5418 3.71986C58.412 3.62899 58.2822 3.58353 58.1523 3.58353H56.4385C56.3346 3.58353 56.2113 3.62248 56.0684 3.70038C55.9256 3.77829 55.8542 3.92112 55.8542 4.12884C55.8542 4.57027 55.7374 4.90135 55.5037 5.12208C55.27 5.34281 54.8415 5.45316 54.2183 5.45316H52.4266V3.07717V1.94761C52.4266 1.35038 52.5889 0.928465 52.9134 0.681713C53.238 0.434961 53.7379 0.311682 54.413 0.311682H67.1109V0.311721ZM76.0433 25.7465L76.0432 25.8244C76.0432 26.0581 76.0822 26.2269 76.1601 26.3308C76.238 26.4346 76.3288 26.5255 76.4327 26.6034C76.6404 26.7592 76.8482 26.9799 77.0559 27.2656C77.2636 27.5512 77.3675 27.9147 77.3675 28.3562V29.5247H70.8627V28.3562C70.8627 27.9148 70.9536 27.5577 71.1354 27.285C71.3172 27.0124 71.5379 26.7852 71.7976 26.6034C71.9274 26.5255 72.0248 26.4346 72.0897 26.3308C72.1547 26.2269 72.1871 26.0581 72.1871 25.8244V25.7465V4.16787C72.1871 3.90819 72.1547 3.7264 72.0897 3.62252C72.0248 3.51864 71.9274 3.41476 71.7976 3.31088C71.5899 3.15508 71.3821 2.93434 71.1744 2.64872C70.9667 2.36309 70.8628 1.99957 70.8628 1.5581V0.428534H77.3676V1.5581C77.3676 1.99953 77.2637 2.36305 77.056 2.64872C76.8482 2.93438 76.6405 3.15508 76.4328 3.31088C76.303 3.41476 76.2056 3.51864 76.1407 3.62252C76.0757 3.7264 76.0433 3.90819 76.0433 4.16787V25.7465L76.0433 25.7465ZM96.3492 0.428573L96.3493 1.59719C96.3493 2.03862 96.2584 2.40214 96.0766 2.6878C95.8948 2.97347 95.7001 3.18115 95.4924 3.31098C95.3625 3.41486 95.2457 3.53171 95.1418 3.66153C95.0379 3.79135 94.96 3.96013 94.9081 4.16785C94.233 8.66002 93.6358 12.6852 93.1164 16.2425C92.8827 17.7746 92.6555 19.2676 92.4347 20.7219C92.214 22.1761 92.0193 23.4808 91.8505 24.6364C91.6817 25.792 91.5389 26.7333 91.422 27.4603C91.3052 28.1873 91.2468 28.5769 91.2468 28.6288C91.2208 28.8365 91.1364 29.0378 90.9935 29.2326C90.8507 29.4273 90.6494 29.5247 90.3898 29.5247H86.1831C85.5339 29.5247 85.1704 29.2001 85.0925 28.5509C84.9627 27.7979 84.7679 26.6749 84.5082 25.1817C84.2485 23.6885 83.9629 22.0527 83.6513 20.2739C83.3397 18.4951 83.0151 16.671 82.6775 14.8014C82.34 12.9317 82.0349 11.2179 81.7622 9.65988C81.4895 8.10186 81.2624 6.81649 81.0806 5.80377C80.8988 4.79106 80.8079 4.24575 80.8079 4.16785C80.756 3.90817 80.6976 3.72638 80.6326 3.6225C80.5677 3.51862 80.4703 3.41474 80.3405 3.31086C80.1328 3.18104 79.938 2.97331 79.7563 2.68769C79.5745 2.40206 79.4836 2.03854 79.4836 1.59707V0.428554H85.6767V1.59707C85.6767 2.06448 85.5923 2.43451 85.4236 2.70716C85.2548 2.97982 85.0665 3.18108 84.8588 3.3109C84.729 3.41478 84.6316 3.51866 84.5667 3.62254C84.5018 3.72642 84.4953 3.90821 84.5472 4.16789C85.1704 8.21875 85.7286 11.8283 86.2221 14.9962C86.4298 16.3465 86.6375 17.6708 86.8452 18.9691C87.0529 20.2674 87.2412 21.423 87.41 22.4357L87.8189 24.8896L87.9747 25.8244C88.0007 25.8244 88.0657 25.5128 88.1695 24.8896C88.2734 24.2664 88.4032 23.4484 88.559 22.4357C88.7148 21.423 88.8836 20.2674 89.0654 18.9691C89.2472 17.6708 89.4419 16.3465 89.6497 14.9962C90.1171 11.8282 90.6234 8.21875 91.1687 4.16789C91.1687 3.90821 91.1428 3.72642 91.0908 3.62254C91.0389 3.51866 90.948 3.41478 90.8182 3.3109C90.6364 3.18108 90.4547 2.97982 90.2729 2.70716C90.0911 2.43451 90.0002 2.06448 90.0002 1.59707V0.428554H96.3492L96.3492 0.428573ZM104.152 3.62252C104.022 3.62252 103.899 3.68095 103.782 3.7978C103.665 3.91465 103.607 4.05098 103.607 4.20678V12.3475C103.607 12.711 103.801 12.8928 104.191 12.8928H108.826C108.956 12.8928 109.092 12.9382 109.235 13.0291C109.378 13.12 109.449 13.2693 109.449 13.477V15.6582C109.449 16.0217 109.255 16.2035 108.865 16.2035H104.191C103.801 16.2035 103.607 16.3853 103.607 16.7488V25.8243C103.607 26.1878 103.762 26.3696 104.074 26.3696H107.969C108.255 26.3696 108.398 26.2009 108.398 25.8633C108.398 25.4478 108.573 25.1232 108.923 24.8895C109.274 24.6558 109.748 24.5389 110.345 24.5389H111.825V28.5509C111.825 28.8365 111.728 29.0702 111.533 29.252C111.338 29.4338 111.098 29.5246 110.813 29.5246H108.398H100.802H98.4652V28.5119C98.4652 27.9406 98.5366 27.5056 98.6794 27.2071C98.8223 26.9085 99.0235 26.6942 99.2832 26.5644C99.6208 26.3826 99.7896 26.1099 99.7896 25.7464V4.20674C99.7896 3.97304 99.7376 3.79126 99.6338 3.66143C99.5299 3.53161 99.413 3.42773 99.2832 3.34983C99.0235 3.22001 98.8223 3.01228 98.6794 2.72666C98.5366 2.44103 98.4652 2.03856 98.4652 1.51919V0.389623H110.813C111.124 0.389623 111.371 0.480494 111.553 0.662276C111.734 0.844059 111.825 1.03881 111.825 1.24654V5.3753H110.384C109.839 5.3753 109.378 5.3039 109.001 5.16107C108.625 5.01824 108.437 4.72611 108.437 4.28468C108.437 4.12888 108.398 3.97958 108.32 3.83675C108.242 3.69392 108.099 3.62252 107.891 3.62252H104.152Z" fill="#FECEA8"/>
</svg>
