<svg width="54" height="54" viewBox="0 0 54 54" fill="none" xmlns="http://www.w3.org/2000/svg">
<path d="M17.038 12.1712C14.6695 12.2246 12.6448 13.7756 10.964 16.8165C9.19904 20.2394 8.32804 24.0443 8.34332 28.2312C8.37388 28.7354 8.42736 28.7813 8.51141 28.3763C9.22196 25.2973 9.96307 22.8906 10.7347 21.1486C11.4911 19.3989 12.3316 17.9625 13.2484 16.8547C15.3571 14.4021 17.1832 14.0048 18.7342 15.6628C20.4303 17.6187 21.3319 20.9194 21.4389 25.5494C21.3472 31.7763 20.5297 36.4827 18.9863 39.684C17.0533 43.5806 15.0668 44.8795 13.0498 43.5653C10.2992 41.3725 8.77118 36.5133 8.46556 29.0028C8.3586 28.7431 8.25928 28.9341 8.18287 29.5759C8.03771 30.3552 7.93838 31.2109 7.87726 32.1201C7.64805 36.2 8.19051 39.6611 9.49701 42.5033C10.8341 45.2003 12.6143 46.568 14.8376 46.6138C17.2367 46.5756 19.4218 45.0093 21.4007 41.8997C23.3719 38.6526 24.6402 34.6949 25.1979 30.0114C25.4042 25.0299 24.7318 20.7895 23.1885 17.2902C21.6299 13.959 19.5899 12.2476 17.0762 12.1559" fill="#FF847C"/>
<path d="M34.6108 10.3221C33.3807 8.30509 31.0275 7.31948 27.5511 7.38061C23.708 7.56398 19.9719 8.71003 16.3504 10.8188C15.9302 11.0938 15.9149 11.1702 16.3045 11.0403C19.3301 10.1158 21.7827 9.55046 23.6698 9.35181C25.5646 9.13024 27.2226 9.13789 28.6437 9.38238C31.8221 9.98596 33.0827 11.3689 32.418 13.5387C31.5699 15.9836 29.1632 18.4133 25.2055 20.8276C19.7656 23.8608 15.2807 25.5111 11.7433 25.7709C7.3959 26.046 5.28717 24.9763 5.41705 22.5696C5.95952 19.0856 9.39767 15.3342 15.7468 11.3077C15.9149 11.0862 15.7009 11.1015 15.1126 11.3536C14.3639 11.621 13.5769 11.9572 12.7518 12.3621C9.10733 14.2034 6.37209 16.4038 4.56897 18.9557C2.90338 21.4618 2.60541 23.6927 3.67505 25.6334C4.90515 27.6886 7.3577 28.7965 11.0403 28.9569C14.8376 29.041 18.9022 28.1623 23.2343 26.2981C27.6504 23.9831 30.9893 21.286 33.2432 18.1993C35.3519 15.1814 35.8103 12.5608 34.6337 10.3374" fill="#FF847C"/>
<path d="M45.0017 24.6172C46.1325 22.5391 45.8116 20.0101 44.0161 17.0304C41.9303 13.7909 39.0728 11.132 35.436 9.05386C34.9852 8.82465 34.9165 8.84757 35.2221 9.12262C37.5371 11.2772 39.2485 13.1262 40.3717 14.6542C41.5101 16.1899 42.3352 17.6263 42.8318 18.9787C43.9015 22.0348 43.3285 23.815 41.1204 24.3193C38.5762 24.8082 35.2755 23.9372 31.2032 21.7215C25.8627 18.5279 22.1876 15.4641 20.1859 12.5379C17.7792 8.9087 17.6493 6.54783 19.7962 5.45526C23.0739 4.17169 28.0401 5.27953 34.7025 8.77117C34.9776 8.80173 34.863 8.626 34.3434 8.24399C33.7398 7.72444 33.0522 7.21254 32.2882 6.70064C28.8729 4.46202 25.6029 3.20136 22.4856 2.91103C19.483 2.72002 17.4048 3.57574 16.2511 5.47818C15.0821 7.57164 15.3495 10.2534 17.0533 13.5158C18.8794 16.847 21.6757 19.9261 25.4501 22.7453C29.6599 25.4118 33.6711 26.9552 37.4683 27.3601C41.1357 27.6734 43.6417 26.7642 44.9711 24.6325" fill="#FF847C"/>
<path d="M37.8198 40.7612C40.1883 40.7078 42.2129 39.1568 43.8938 36.1159C45.6587 32.6931 46.5297 28.8882 46.5145 24.7013C46.4839 24.197 46.4304 24.1512 46.3464 24.5561C45.6358 27.6351 44.8947 30.0419 44.123 31.7838C43.3666 33.5335 42.5262 34.9699 41.6094 36.0777C39.5006 38.5303 37.6746 38.9276 36.1236 37.2696C34.4274 35.3137 33.5259 32.0131 33.4189 27.383C33.5106 21.1561 34.3281 16.4497 35.8715 13.2484C37.8045 9.35182 39.791 8.05296 41.808 9.3671C44.5585 11.5599 46.0866 16.4191 46.3922 23.9296C46.4992 24.1894 46.5985 23.9983 46.6749 23.3566C46.8201 22.5772 46.9194 21.7215 46.9805 20.8123C47.2097 16.7324 46.6673 13.2713 45.3608 10.4291C44.0237 7.73207 42.2435 6.36445 40.0202 6.3186C37.6211 6.35681 35.436 7.92307 33.4571 11.0327C31.4859 14.2798 30.2176 18.2375 29.6599 22.9211C29.4536 27.9026 30.1259 32.1429 31.6693 35.6422C33.2279 38.9734 35.2679 40.6848 37.7816 40.7765" fill="#FF847C"/>
<path d="M9.85604 28.3152C8.72527 30.3933 9.04616 32.9223 10.8416 35.902C12.9275 39.1415 15.7849 41.8004 19.4217 43.8785C19.8725 44.1077 19.9413 44.0848 19.6357 43.8098C17.3206 41.6552 15.6092 39.8062 14.4861 38.2782C13.3477 36.7425 12.5225 35.3061 12.0259 33.9537C10.9562 30.8976 11.5293 29.1174 13.7373 28.6131C16.2816 28.1242 19.5822 28.9952 23.6545 31.2109C28.9951 34.4045 32.6701 37.4683 34.6719 40.3945C37.0786 44.0237 37.2084 46.3846 35.0615 47.4771C31.7838 48.7607 26.8176 47.6529 20.1552 44.1612C19.8802 44.1307 19.9948 44.3064 20.5143 44.6884C21.1179 45.208 21.8055 45.7199 22.5696 46.2318C25.9848 48.4704 29.2549 49.731 32.3721 50.0214C35.3748 50.2124 37.4529 49.3567 38.6066 47.4542C39.7756 45.3608 39.5082 42.679 37.8044 39.4166C35.9784 36.0854 33.182 33.0063 29.4077 30.1871C25.1978 27.5206 21.1867 25.9772 17.3894 25.5723C13.722 25.259 11.216 26.1682 9.8866 28.2999" fill="#FF847C"/>
<path d="M20.247 42.6102C21.477 44.6273 23.8303 45.6129 27.3066 45.5517C31.1497 45.3684 34.8858 44.2223 38.5074 42.1136C38.9276 41.8385 38.9429 41.7621 38.5532 41.892C35.5276 42.8165 33.0751 43.3819 31.1879 43.5805C29.2931 43.8021 27.6352 43.7945 26.2141 43.55C23.0357 42.9464 21.775 41.5635 22.4397 39.3936C23.2878 36.9487 25.6945 34.5191 29.6522 32.1047C35.0921 29.0715 39.577 27.4212 43.1145 27.1614C47.4618 26.8864 49.5706 27.956 49.4407 30.3627C48.9135 33.8391 45.4753 37.5905 39.1186 41.617C38.9505 41.8385 39.1644 41.8232 39.7527 41.5711C40.5015 41.3037 41.2884 40.9675 42.1136 40.5626C45.758 38.7213 48.4933 36.5209 50.2964 33.969C51.962 31.463 52.26 29.232 51.1903 27.2913C49.9602 25.2361 47.5077 24.1282 43.8327 23.9678C40.0354 23.8837 35.9708 24.7624 31.6387 26.6266C27.2226 28.9416 23.8838 31.6387 21.6299 34.7254C19.5211 37.7433 19.0627 40.3639 20.2393 42.5873" fill="#FF847C"/>
</svg>
