<svg width="30" height="30" viewBox="0 0 30 30" fill="none" xmlns="http://www.w3.org/2000/svg">
<path d="M18.9229 29.6456C20.7992 28.4799 22.1166 26.4839 22.3082 24.1205C22.4998 21.829 21.5896 19.7052 20.0327 18.2521C20.2882 18.7471 20.4798 19.282 20.6155 19.833C20.9988 21.1264 21.1505 22.5237 21.0307 23.9608C20.855 26.1086 20.0886 28.0648 18.9229 29.6456Z" fill="#FECEA8"/>
<path d="M22.2521 27.1306C23.7611 25.6455 24.5276 23.5855 24.1124 21.5176C23.7132 19.5136 22.3 17.9407 20.4316 17.1183C20.7989 17.4776 21.1263 17.8768 21.3898 18.3159C22.0844 19.314 22.5954 20.4637 22.8509 21.7252C23.2182 23.6015 22.9786 25.4698 22.2521 27.1306Z" fill="#FECEA8"/>
<path d="M11.7449 29.7973C13.9405 29.6376 16.0404 28.4719 17.3019 26.4599C18.5235 24.5117 18.7072 22.2122 17.9886 20.2002C17.9886 20.7591 17.9167 21.318 17.781 21.8689C17.5255 23.2023 17.0225 24.5117 16.248 25.7333C15.0983 27.5537 13.5094 28.935 11.7449 29.7973Z" fill="#FECEA8"/>
<path d="M15.8567 29.1107C17.8847 28.4879 19.5135 27.0108 20.1043 24.9908C20.6712 23.0267 20.1522 20.9827 18.8668 19.3859C19.0264 19.8809 19.1302 20.3839 19.1702 20.8869C19.3298 22.0925 19.242 23.3461 18.8827 24.5836C18.3478 26.428 17.2699 27.969 15.8567 29.1107Z" fill="#FECEA8"/>
<path d="M5.30957 26.6116C7.33758 27.4819 9.73286 27.418 11.7848 26.2204C13.7729 25.0706 14.9945 23.1065 15.2899 20.9987C15.0264 21.4937 14.7071 21.9568 14.3318 22.3799C13.4935 23.4339 12.4395 24.36 11.186 25.0946C9.31768 26.1805 7.28169 26.6675 5.30957 26.6116Z" fill="#FECEA8"/>
<path d="M9.27783 27.905C11.3697 28.2883 13.4935 27.7374 14.9467 26.2204C16.3599 24.7433 16.8389 22.6913 16.4397 20.6873C16.3599 21.1903 16.2162 21.6853 16.0086 22.1564C15.6014 23.2901 14.9467 24.368 14.0604 25.2942C12.727 26.6834 11.0583 27.5458 9.27783 27.905Z" fill="#FECEA8"/>
<path d="M1.07788 20.823C2.46714 22.5317 4.6229 23.5776 6.99423 23.4658C9.2937 23.362 11.2818 22.1883 12.5193 20.4478C12.0563 20.7671 11.5612 21.0306 11.0263 21.2302C9.8047 21.7811 8.4314 22.1165 6.98625 22.1803C4.83049 22.2841 2.80248 21.7731 1.07788 20.823Z" fill="#FECEA8"/>
<path d="M4.00024 23.8011C5.66896 25.1106 7.81673 25.5976 9.8128 24.9189C11.745 24.2642 13.1263 22.6594 13.6932 20.7032C13.3898 21.1104 13.0305 21.4857 12.6392 21.8051C11.737 22.6275 10.6591 23.2822 9.44552 23.6894C7.6251 24.3042 5.74082 24.3042 4.00024 23.8011Z" fill="#FECEA8"/>
<path d="M0 13.725C0.447119 15.8887 1.8763 17.8049 4.03206 18.803C6.11596 19.7691 8.42341 19.6493 10.3157 18.6832C9.76477 18.7471 9.19789 18.7471 8.63899 18.6832C7.28964 18.6034 5.92433 18.268 4.61491 17.6692C2.65876 16.759 1.08586 15.3697 0 13.725Z" fill="#FECEA8"/>
<path d="M1.21362 17.7172C2.09189 19.6494 3.76061 21.0706 5.85249 21.3899C7.86452 21.7093 9.83664 20.9189 11.2419 19.4418C10.7868 19.6733 10.2997 19.841 9.79672 19.9368C8.61505 20.2482 7.36152 20.336 6.09202 20.1364C4.19974 19.841 2.53103 18.9707 1.21362 17.7172Z" fill="#FECEA8"/>
<path d="M2.499 6.6748C1.85228 8.78265 2.17963 11.162 3.58486 13.0702C4.95017 14.9146 7.03407 15.9206 9.16587 15.9845C8.64689 15.7769 8.15187 15.5054 7.68878 15.1781C6.54703 14.4595 5.50907 13.5093 4.64677 12.3436C3.3613 10.6111 2.65869 8.63894 2.499 6.6748Z" fill="#FECEA8"/>
<path d="M1.64484 10.7628C1.48515 12.8787 2.26761 14.9226 3.94431 16.2161C5.56512 17.4616 7.657 17.7171 9.60516 17.1023C9.09417 17.0704 8.59116 16.9826 8.09614 16.8389C6.91446 16.5434 5.78069 16.0085 4.75871 15.226C3.23371 14.0523 2.19576 12.4874 1.64484 10.7628Z" fill="#FECEA8"/>
<path d="M7.80062 1.83643C6.25167 3.40933 5.44526 5.66089 5.81253 8.00827C6.16384 10.2758 7.55311 12.1282 9.41344 13.1661C9.04617 12.7509 8.72679 12.2799 8.4713 11.7689C7.79263 10.6032 7.30559 9.28576 7.09002 7.85657C6.75468 5.72477 7.03413 3.64886 7.80062 1.83643Z" fill="#FECEA8"/>
<path d="M5.15782 5.07007C4.04002 6.86653 3.78453 9.04624 4.67078 10.9625C5.53308 12.8148 7.27366 14.0045 9.28569 14.3638C8.84656 14.1083 8.43138 13.7969 8.07208 13.4296C7.15389 12.6232 6.39539 11.6252 5.85245 10.4595C5.04604 8.72687 4.83845 6.85056 5.15782 5.07007Z" fill="#FECEA8"/>
<path d="M14.7391 0C12.6392 0.670679 10.8826 2.30746 10.1241 4.55104C9.38959 6.73074 9.75687 9.01425 10.9306 10.7947C10.8028 10.2518 10.7389 9.68493 10.7389 9.11804C10.6751 7.77668 10.8587 6.37944 11.3138 5.01412C12.0084 2.96217 13.222 1.26152 14.7391 0Z" fill="#FECEA8"/>
<path d="M10.8986 1.63672C9.07823 2.72258 7.84067 4.53501 7.74486 6.64286C7.64905 8.68683 8.64708 10.5472 10.2679 11.7927C9.98844 11.3616 9.77287 10.8985 9.62116 10.4114C9.18203 9.26969 8.96645 8.03212 9.02234 6.74665C9.11017 4.83043 9.79682 3.08187 10.8986 1.63672Z" fill="#FECEA8"/>
<path d="M21.7412 1.57295C19.5694 1.20567 17.254 1.83643 15.5374 3.48119C13.8846 5.07006 13.1581 7.26574 13.3657 9.38955C13.5094 8.85461 13.709 8.31966 13.9805 7.81665C14.5394 6.59506 15.3458 5.44532 16.3917 4.4393C17.9486 2.93826 19.817 1.98813 21.7412 1.57295Z" fill="#FECEA8"/>
<path d="M17.5814 1.25354C15.4656 1.3733 13.5334 2.41126 12.4715 4.23966C11.4415 6.00418 11.4655 8.11203 12.3198 9.97237C12.2879 9.45339 12.3038 8.9424 12.3917 8.43939C12.5274 7.22578 12.9106 6.02814 13.5574 4.91832C14.5155 3.25759 15.9367 2.02003 17.5814 1.25354Z" fill="#FECEA8"/>
<path d="M27.2184 6.20384C25.4618 4.87046 23.1224 4.36745 20.8389 5.03015C18.6353 5.67688 16.9825 7.2897 16.1841 9.26182C16.5593 8.84663 16.9825 8.47137 17.4536 8.152C18.5235 7.32164 19.769 6.67491 21.1503 6.2757C23.2262 5.66889 25.3261 5.68486 27.2184 6.20384Z" fill="#FECEA8"/>
<path d="M23.6814 4.00008C21.7493 3.12181 19.5536 3.15375 17.7731 4.28752C16.0405 5.37338 15.0824 7.25767 14.9866 9.30164C15.1862 8.83057 15.4497 8.38345 15.7531 7.96827C16.4397 6.96225 17.326 6.076 18.4118 5.38935C20.0406 4.36736 21.869 3.92024 23.6814 4.00008Z" fill="#FECEA8"/>
<path d="M29.941 12.8467C28.9988 10.8507 27.1544 9.31768 24.823 8.8546C22.5715 8.40748 20.3518 9.07017 18.739 10.4594C19.258 10.2678 19.8089 10.1241 20.3758 10.0602C21.7012 9.82069 23.1144 9.82868 24.5276 10.1081C26.6434 10.5233 28.4958 11.5054 29.941 12.8467Z" fill="#FECEA8"/>
<path d="M27.8172 9.25378C26.5078 7.58507 24.5516 6.59502 22.4518 6.77068C20.4158 6.93834 18.6992 8.16792 17.6692 9.93245C18.0604 9.61308 18.4916 9.33363 18.9626 9.11805C20.0325 8.5352 21.2302 8.15994 22.5077 8.05614C24.4239 7.89646 26.2523 8.34358 27.8172 9.25378Z" fill="#FECEA8"/>
<path d="M29.2864 19.9927C29.3663 17.797 28.4481 15.5773 26.5957 14.0923C24.7993 12.6551 22.5317 12.216 20.4558 12.703C21.0067 12.7669 21.5576 12.9026 22.0926 13.1022C23.3781 13.5094 24.6236 14.1561 25.7494 15.0664C27.4341 16.4077 28.6237 18.1403 29.2864 19.9927Z" fill="#FECEA8"/>
<path d="M29.0628 15.8248C28.6715 13.7409 27.3941 11.9604 25.4459 11.146C23.5616 10.3556 21.4697 10.643 19.7451 11.7369C20.2481 11.6331 20.7591 11.5852 21.2701 11.6012C22.4917 11.5852 23.7293 11.8008 24.9109 12.3038C26.6755 13.0463 28.0887 14.2998 29.0628 15.8248Z" fill="#FECEA8"/>
<path d="M25.398 26.0288C26.4919 24.1126 26.6915 21.7253 25.7334 19.5535C24.8072 17.4537 23.0027 16.0165 20.9348 15.4816C21.3979 15.8009 21.8211 16.1682 22.2043 16.5914C23.1624 17.5415 23.9688 18.6992 24.5437 20.0246C25.414 21.9967 25.6695 24.0806 25.398 26.0288Z" fill="#FECEA8"/>
<path d="M27.1307 22.2282C27.7454 20.2082 27.4341 18.0285 26.0847 16.4077C24.7833 14.8348 22.7872 14.1242 20.7512 14.2998C21.2462 14.4435 21.7173 14.6352 22.1644 14.8907C23.2583 15.4336 24.2483 16.2081 25.0707 17.1981C26.2923 18.6672 26.971 20.4238 27.1307 22.2282Z" fill="#FECEA8"/>
</svg>
