<svg width="34" height="30" viewBox="0 0 34 30" fill="none" xmlns="http://www.w3.org/2000/svg">
<path d="M8.56482 3.98899e-05C10.8222 3.98899e-05 12.4423 0.584312 13.4248 1.75282C14.4072 2.92132 14.8987 4.50149 14.8987 6.49328V10.8354C14.8987 12.8272 14.4074 14.3874 13.4248 15.5161C12.4422 16.6447 10.8221 17.2091 8.56482 17.2091H5.97549C5.60371 17.2091 5.41779 17.3685 5.41779 17.6871V25.973C5.41779 26.2386 5.45097 26.4245 5.51738 26.5307C5.58379 26.637 5.68338 26.7432 5.81615 26.8495C6.02859 27.0088 6.24104 27.2346 6.45348 27.5267C6.66593 27.8188 6.77217 28.1906 6.77217 28.6421V29.7973H0.119587V28.6421C0.119587 28.1906 0.225829 27.8188 0.438274 27.5267C0.650718 27.2345 0.863163 27.0088 1.07561 26.8495C1.20838 26.7432 1.30797 26.637 1.37438 26.5307C1.44078 26.4245 1.47397 26.2386 1.47397 25.973V3.86411C1.47397 3.46576 1.30136 3.17364 0.9561 2.98773C0.690514 2.82838 0.464765 2.58937 0.278851 2.27068C0.092937 1.95199 0 1.52707 0 0.995935V3.98899e-05H8.5647H8.56482ZM10.955 6.41361C10.955 5.48412 10.7624 4.7405 10.3774 4.1828C9.99226 3.6251 9.38807 3.34625 8.56482 3.34625H6.05516C5.89582 3.34625 5.74974 3.39274 5.61697 3.48567C5.4842 3.57861 5.41779 3.71804 5.41779 3.90395V13.3052C5.41779 13.677 5.5904 13.8629 5.93566 13.8629H8.56482C9.38811 13.8629 9.99234 13.5841 10.3774 13.0264C10.7624 12.4687 10.955 11.725 10.955 10.7955V6.41361ZM32.3598 26.7299C32.5722 26.8626 32.7781 27.0286 32.9773 27.2277C33.1765 27.4269 33.2761 27.7655 33.2761 28.2436V29.7972H29.9697C29.2793 29.7972 28.7681 29.6179 28.436 29.2594C28.104 28.9008 27.9381 28.4295 27.9381 27.8452V20.0374C27.9381 19.1079 27.7456 18.3842 27.3605 17.8663C26.9754 17.3485 26.3579 17.0895 25.5081 17.0895H23.0383C22.693 17.0895 22.5204 17.2754 22.5204 17.6472V25.9729C22.5204 26.2385 22.5603 26.4244 22.6399 26.5307C22.7196 26.6369 22.8125 26.7431 22.9188 26.8494C23.1312 27.0087 23.3437 27.2345 23.5561 27.5266C23.7686 27.8187 23.8748 28.1905 23.8748 28.642V29.7972H17.2621V28.642C17.2621 28.1905 17.3683 27.8188 17.5807 27.5266C17.7932 27.2344 18.0056 27.0087 18.2181 26.8494C18.3243 26.7431 18.4173 26.6369 18.4969 26.5307C18.5766 26.4244 18.6164 26.2385 18.6164 25.9729V3.8242C18.6164 3.61175 18.5766 3.44576 18.4969 3.32625C18.4173 3.20674 18.3243 3.12042 18.2181 3.06732C18.0056 2.93455 17.7998 2.7221 17.6006 2.42999C17.4014 2.13787 17.3019 1.71294 17.3019 1.15524V0H25.508C26.65 0 27.6193 0.165996 28.416 0.497948C29.2128 0.8299 29.8701 1.28801 30.3879 1.87228C30.9058 2.45656 31.2842 3.1537 31.5232 3.96366C31.7623 4.77363 31.8818 5.66993 31.8818 6.65258V10.7557C31.8818 11.6055 31.7092 12.3823 31.3639 13.0861C31.0186 13.7899 30.5672 14.3675 30.0095 14.8189C29.7705 15.0579 29.797 15.3235 30.0892 15.6156C30.7 16.0671 31.1514 16.6912 31.4436 17.4879C31.7358 18.2846 31.8818 19.1743 31.8818 20.1569V26.0128C31.8818 26.2784 31.9283 26.4444 32.0212 26.5108C32.1141 26.5772 32.227 26.6502 32.3598 26.7299ZM27.938 6.37377C27.938 5.44428 27.7454 4.70734 27.3603 4.16288C26.9752 3.61843 26.3577 3.34625 25.508 3.34625H23.1576C22.7327 3.34625 22.5203 3.53216 22.5203 3.90395V13.3849C22.5203 13.5176 22.5734 13.6239 22.6796 13.7036C22.7859 13.7832 22.8921 13.8231 22.9983 13.8231H25.508C26.3578 13.8231 26.9752 13.5442 27.3604 12.9865C27.7455 12.4288 27.938 11.6852 27.938 10.7557V6.37377Z" fill="#FECEA8"/>
</svg>
